# xmcd
#
# Track frame offsets: 
#        150
#        17541
#        35988
#
# Disc length: 673 seconds
#
# Revision: 7
# Processed by: cddbd v1.5.2PL0 Copyright (c) Steve Scherf et al.
# Submitted via: ExactAudioCopy v0.99pb5
#
DISCID=1e029f03
DTITLE=Rammstein - Mann Gegen Mann
DYEAR=2005
DGENRE=Industrial
TTITLE0=Mann Gegen Mann
TTITLE1=Mann Gegen Mann (Popular Music Mix By Vince Clarke)
TTITLE2=Mann Gegen Mann (Musensohn Remix By Sven Helbig)
EXTD=YEAR: 2003
EXTT0=
EXTT1=
EXTT2=
PLAYORDER=
